<svg width="547" height="96" viewBox="0 0 547 96" fill="none" xmlns="http://www.w3.org/2000/svg">
<circle cx="39.6091" cy="39.6091" r="39.6091" fill="#017FC7"/>
<circle cx="60.0629" cy="43.1804" r="5.5193" fill="#F1B985"/>
<circle cx="19.8045" cy="43.1804" r="5.5193" fill="#F3DB9F"/>
<circle cx="19.8045" cy="43.1804" r="5.5193" fill="#EBB380"/>
<rect x="19.4799" y="11.6879" width="40.2584" height="56.4916" rx="20.1292" fill="#EAC4A1"/>
<rect x="37.0118" y="42.8558" width="5.19463" height="11.0386" rx="2.59732" fill="#B48152"/>
<path d="M18.1812 30.5185C18.1812 20.1187 26.6119 11.6879 37.0117 11.6879H42.2063C52.6062 11.6879 61.0369 20.1187 61.0369 30.5185H18.1812Z" fill="#032C43"/>
<path d="M19.4799 48.6996H59.7383C59.7383 59.4581 51.0168 68.1795 40.2584 68.1795H38.9597C28.2013 68.1795 19.4799 59.4581 19.4799 48.6996Z" fill="white"/>
<circle cx="31.4924" cy="37.3364" r="5.0193" fill="#EAC4A1" stroke="black"/>
<circle cx="47.7257" cy="37.3364" r="5.0193" fill="#EAC4A1" stroke="black"/>
<line x1="37.0118" y1="37.1611" x2="42.2064" y2="37.1611" stroke="black"/>
<path d="M39.1773 22.0771C40.7625 25.4232 41.0716 28.009 43.2365 30.6454C45.4014 33.2817 33.7651 30.6454 33.7651 30.6454C37.3889 28.3647 37.2813 26.9663 39.1773 22.0771Z" fill="#EAC4A1"/>
<circle cx="39.6091" cy="39.6091" r="36.1091" stroke="black" stroke-width="7"/>
<rect x="71.6414" y="58.1561" width="52.4456" height="8.44128" transform="rotate(35.083 71.6414 58.1561)" fill="black"/>
<path d="M154.852 24.3438L165.809 55.2812L176.707 24.3438H188.25V67H179.432V55.3398L180.311 35.2129L168.797 67H162.762L151.277 35.2422L152.156 55.3398V67H143.367V24.3438H154.852ZM194.051 50.8574C194.051 47.7129 194.656 44.9102 195.867 42.4492C197.078 39.9883 198.816 38.084 201.082 36.7363C203.367 35.3887 206.014 34.7148 209.022 34.7148C213.299 34.7148 216.785 36.0234 219.481 38.6406C222.195 41.2578 223.709 44.8125 224.022 49.3047L224.08 51.4727C224.08 56.3359 222.723 60.2422 220.008 63.1914C217.293 66.1211 213.65 67.5859 209.08 67.5859C204.51 67.5859 200.857 66.1211 198.123 63.1914C195.408 60.2617 194.051 56.2773 194.051 51.2383V50.8574ZM202.518 51.4727C202.518 54.4805 203.084 56.7852 204.217 58.3867C205.35 59.9688 206.971 60.7598 209.08 60.7598C211.131 60.7598 212.732 59.9785 213.885 58.416C215.037 56.834 215.613 54.3145 215.613 50.8574C215.613 47.9082 215.037 45.623 213.885 44.002C212.732 42.3809 211.111 41.5703 209.022 41.5703C206.951 41.5703 205.35 42.3809 204.217 44.002C203.084 45.6035 202.518 48.0938 202.518 51.4727ZM237.088 35.3008L237.352 38.9629C239.617 36.1309 242.654 34.7148 246.463 34.7148C249.822 34.7148 252.322 35.7012 253.963 37.6738C255.604 39.6465 256.443 42.5957 256.482 46.5215V67H248.016V46.7266C248.016 44.9297 247.625 43.6309 246.844 42.8301C246.063 42.0098 244.764 41.5996 242.947 41.5996C240.565 41.5996 238.777 42.6152 237.586 44.6465V67H229.119V35.3008H237.088ZM271.863 67H263.367V35.3008H271.863V67ZM262.869 27.0977C262.869 25.8281 263.289 24.7832 264.129 23.9629C264.988 23.1426 266.15 22.7324 267.615 22.7324C269.061 22.7324 270.213 23.1426 271.072 23.9629C271.932 24.7832 272.361 25.8281 272.361 27.0977C272.361 28.3867 271.922 29.4414 271.043 30.2617C270.184 31.082 269.041 31.4922 267.615 31.4922C266.19 31.4922 265.037 31.082 264.158 30.2617C263.299 29.4414 262.869 28.3867 262.869 27.0977ZM289.002 27.5078V35.3008H294.422V41.5117H289.002V57.332C289.002 58.5039 289.227 59.3438 289.676 59.8516C290.125 60.3594 290.984 60.6133 292.254 60.6133C293.191 60.6133 294.022 60.5449 294.744 60.4082V66.8242C293.084 67.332 291.375 67.5859 289.617 67.5859C283.68 67.5859 280.652 64.5879 280.535 58.5918V41.5117H275.906V35.3008H280.535V27.5078H289.002ZM296.941 50.8574C296.941 47.7129 297.547 44.9102 298.758 42.4492C299.969 39.9883 301.707 38.084 303.973 36.7363C306.258 35.3887 308.904 34.7148 311.912 34.7148C316.19 34.7148 319.676 36.0234 322.371 38.6406C325.086 41.2578 326.6 44.8125 326.912 49.3047L326.971 51.4727C326.971 56.3359 325.613 60.2422 322.898 63.1914C320.184 66.1211 316.541 67.5859 311.971 67.5859C307.4 67.5859 303.748 66.1211 301.014 63.1914C298.299 60.2617 296.941 56.2773 296.941 51.2383V50.8574ZM305.408 51.4727C305.408 54.4805 305.975 56.7852 307.107 58.3867C308.24 59.9688 309.861 60.7598 311.971 60.7598C314.022 60.7598 315.623 59.9785 316.775 58.416C317.928 56.834 318.504 54.3145 318.504 50.8574C318.504 47.9082 317.928 45.623 316.775 44.002C315.623 42.3809 314.002 41.5703 311.912 41.5703C309.842 41.5703 308.24 42.3809 307.107 44.002C305.975 45.6035 305.408 48.0938 305.408 51.4727ZM349.998 43.2402C348.846 43.084 347.83 43.0059 346.951 43.0059C343.748 43.0059 341.648 44.0898 340.652 46.2578V67H332.186V35.3008H340.184L340.418 39.0801C342.117 36.1699 344.471 34.7148 347.479 34.7148C348.416 34.7148 349.295 34.8418 350.115 35.0957L349.998 43.2402ZM371.59 67C371.199 66.2383 370.916 65.291 370.74 64.1582C368.69 66.4434 366.023 67.5859 362.742 67.5859C359.637 67.5859 357.059 66.6875 355.008 64.8906C352.977 63.0938 351.961 60.8281 351.961 58.0938C351.961 54.7344 353.201 52.1562 355.682 50.3594C358.182 48.5625 361.785 47.6543 366.492 47.6348H370.389V45.8184C370.389 44.3535 370.008 43.1816 369.246 42.3027C368.504 41.4238 367.322 40.9844 365.701 40.9844C364.275 40.9844 363.152 41.3262 362.332 42.0098C361.531 42.6934 361.131 43.6309 361.131 44.8223H352.664C352.664 42.9863 353.231 41.2871 354.363 39.7246C355.496 38.1621 357.098 36.9414 359.168 36.0625C361.238 35.1641 363.563 34.7148 366.141 34.7148C370.047 34.7148 373.143 35.7012 375.428 37.6738C377.732 39.627 378.885 42.3809 378.885 45.9355V59.6758C378.904 62.6836 379.324 64.959 380.145 66.502V67H371.59ZM364.588 61.1113C365.838 61.1113 366.99 60.8379 368.045 60.291C369.1 59.7246 369.881 58.9727 370.389 58.0352V52.5859H367.225C362.986 52.5859 360.731 54.0508 360.457 56.9805L360.428 57.4785C360.428 58.5332 360.799 59.4023 361.541 60.0859C362.283 60.7695 363.299 61.1113 364.588 61.1113ZM416.795 52.1465H400.301V45.3203H416.795V52.1465ZM439.09 67V24.3438H454.031C459.207 24.3438 463.133 25.3398 465.809 27.332C468.484 29.3047 469.822 32.2051 469.822 36.0332C469.822 38.123 469.285 39.9688 468.211 41.5703C467.137 43.1523 465.643 44.3145 463.729 45.0566C465.916 45.6035 467.635 46.707 468.885 48.3672C470.154 50.0273 470.789 52.0586 470.789 54.4609C470.789 58.5625 469.481 61.668 466.863 63.7773C464.246 65.8867 460.516 66.9609 455.672 67H439.09ZM447.879 48.4258V59.9395H455.408C457.479 59.9395 459.09 59.4512 460.242 58.4746C461.414 57.4785 462 56.1113 462 54.373C462 50.4668 459.979 48.4844 455.936 48.4258H447.879ZM447.879 42.2148H454.383C458.816 42.1367 461.033 40.3691 461.033 36.9121C461.033 34.9785 460.467 33.5918 459.334 32.752C458.221 31.8926 456.453 31.4629 454.031 31.4629H447.879V42.2148ZM494.607 24.3438H503.397V53.875C503.397 56.5898 502.791 58.9922 501.58 61.082C500.389 63.1523 498.699 64.7539 496.512 65.8867C494.324 67.0195 491.854 67.5859 489.1 67.5859C484.588 67.5859 481.072 66.4434 478.553 64.1582C476.033 61.8535 474.773 58.6016 474.773 54.4023H483.621C483.621 56.4922 484.061 58.0352 484.94 59.0312C485.818 60.0273 487.205 60.5254 489.1 60.5254C490.779 60.5254 492.117 59.9492 493.113 58.7969C494.109 57.6445 494.607 56.0039 494.607 53.875V24.3438Z" fill="black"/>
<path d="M154.852 24.3438L165.809 55.2812L176.707 24.3438H188.25V67H179.432V55.3398L180.311 35.2129L168.797 67H162.762L151.277 35.2422L152.156 55.3398V67H143.367V24.3438H154.852ZM194.051 50.8574C194.051 47.7129 194.656 44.9102 195.867 42.4492C197.078 39.9883 198.816 38.084 201.082 36.7363C203.367 35.3887 206.014 34.7148 209.022 34.7148C213.299 34.7148 216.785 36.0234 219.481 38.6406C222.195 41.2578 223.709 44.8125 224.022 49.3047L224.08 51.4727C224.08 56.3359 222.723 60.2422 220.008 63.1914C217.293 66.1211 213.65 67.5859 209.08 67.5859C204.51 67.5859 200.857 66.1211 198.123 63.1914C195.408 60.2617 194.051 56.2773 194.051 51.2383V50.8574ZM202.518 51.4727C202.518 54.4805 203.084 56.7852 204.217 58.3867C205.35 59.9688 206.971 60.7598 209.08 60.7598C211.131 60.7598 212.732 59.9785 213.885 58.416C215.037 56.834 215.613 54.3145 215.613 50.8574C215.613 47.9082 215.037 45.623 213.885 44.002C212.732 42.3809 211.111 41.5703 209.022 41.5703C206.951 41.5703 205.35 42.3809 204.217 44.002C203.084 45.6035 202.518 48.0938 202.518 51.4727ZM237.088 35.3008L237.352 38.9629C239.617 36.1309 242.654 34.7148 246.463 34.7148C249.822 34.7148 252.322 35.7012 253.963 37.6738C255.604 39.6465 256.443 42.5957 256.482 46.5215V67H248.016V46.7266C248.016 44.9297 247.625 43.6309 246.844 42.8301C246.063 42.0098 244.764 41.5996 242.947 41.5996C240.565 41.5996 238.777 42.6152 237.586 44.6465V67H229.119V35.3008H237.088ZM271.863 67H263.367V35.3008H271.863V67ZM262.869 27.0977C262.869 25.8281 263.289 24.7832 264.129 23.9629C264.988 23.1426 266.15 22.7324 267.615 22.7324C269.061 22.7324 270.213 23.1426 271.072 23.9629C271.932 24.7832 272.361 25.8281 272.361 27.0977C272.361 28.3867 271.922 29.4414 271.043 30.2617C270.184 31.082 269.041 31.4922 267.615 31.4922C266.19 31.4922 265.037 31.082 264.158 30.2617C263.299 29.4414 262.869 28.3867 262.869 27.0977ZM289.002 27.5078V35.3008H294.422V41.5117H289.002V57.332C289.002 58.5039 289.227 59.3438 289.676 59.8516C290.125 60.3594 290.984 60.6133 292.254 60.6133C293.191 60.6133 294.022 60.5449 294.744 60.4082V66.8242C293.084 67.332 291.375 67.5859 289.617 67.5859C283.68 67.5859 280.652 64.5879 280.535 58.5918V41.5117H275.906V35.3008H280.535V27.5078H289.002ZM296.941 50.8574C296.941 47.7129 297.547 44.9102 298.758 42.4492C299.969 39.9883 301.707 38.084 303.973 36.7363C306.258 35.3887 308.904 34.7148 311.912 34.7148C316.19 34.7148 319.676 36.0234 322.371 38.6406C325.086 41.2578 326.6 44.8125 326.912 49.3047L326.971 51.4727C326.971 56.3359 325.613 60.2422 322.898 63.1914C320.184 66.1211 316.541 67.5859 311.971 67.5859C307.4 67.5859 303.748 66.1211 301.014 63.1914C298.299 60.2617 296.941 56.2773 296.941 51.2383V50.8574ZM305.408 51.4727C305.408 54.4805 305.975 56.7852 307.107 58.3867C308.24 59.9688 309.861 60.7598 311.971 60.7598C314.022 60.7598 315.623 59.9785 316.775 58.416C317.928 56.834 318.504 54.3145 318.504 50.8574C318.504 47.9082 317.928 45.623 316.775 44.002C315.623 42.3809 314.002 41.5703 311.912 41.5703C309.842 41.5703 308.24 42.3809 307.107 44.002C305.975 45.6035 305.408 48.0938 305.408 51.4727ZM349.998 43.2402C348.846 43.084 347.83 43.0059 346.951 43.0059C343.748 43.0059 341.648 44.0898 340.652 46.2578V67H332.186V35.3008H340.184L340.418 39.0801C342.117 36.1699 344.471 34.7148 347.479 34.7148C348.416 34.7148 349.295 34.8418 350.115 35.0957L349.998 43.2402ZM371.59 67C371.199 66.2383 370.916 65.291 370.74 64.1582C368.69 66.4434 366.023 67.5859 362.742 67.5859C359.637 67.5859 357.059 66.6875 355.008 64.8906C352.977 63.0938 351.961 60.8281 351.961 58.0938C351.961 54.7344 353.201 52.1562 355.682 50.3594C358.182 48.5625 361.785 47.6543 366.492 47.6348H370.389V45.8184C370.389 44.3535 370.008 43.1816 369.246 42.3027C368.504 41.4238 367.322 40.9844 365.701 40.9844C364.275 40.9844 363.152 41.3262 362.332 42.0098C361.531 42.6934 361.131 43.6309 361.131 44.8223H352.664C352.664 42.9863 353.231 41.2871 354.363 39.7246C355.496 38.1621 357.098 36.9414 359.168 36.0625C361.238 35.1641 363.563 34.7148 366.141 34.7148C370.047 34.7148 373.143 35.7012 375.428 37.6738C377.732 39.627 378.885 42.3809 378.885 45.9355V59.6758C378.904 62.6836 379.324 64.959 380.145 66.502V67H371.59ZM364.588 61.1113C365.838 61.1113 366.99 60.8379 368.045 60.291C369.1 59.7246 369.881 58.9727 370.389 58.0352V52.5859H367.225C362.986 52.5859 360.731 54.0508 360.457 56.9805L360.428 57.4785C360.428 58.5332 360.799 59.4023 361.541 60.0859C362.283 60.7695 363.299 61.1113 364.588 61.1113ZM416.795 52.1465H400.301V45.3203H416.795V52.1465ZM439.09 67V24.3438H454.031C459.207 24.3438 463.133 25.3398 465.809 27.332C468.484 29.3047 469.822 32.2051 469.822 36.0332C469.822 38.123 469.285 39.9688 468.211 41.5703C467.137 43.1523 465.643 44.3145 463.729 45.0566C465.916 45.6035 467.635 46.707 468.885 48.3672C470.154 50.0273 470.789 52.0586 470.789 54.4609C470.789 58.5625 469.481 61.668 466.863 63.7773C464.246 65.8867 460.516 66.9609 455.672 67H439.09ZM447.879 48.4258V59.9395H455.408C457.479 59.9395 459.09 59.4512 460.242 58.4746C461.414 57.4785 462 56.1113 462 54.373C462 50.4668 459.979 48.4844 455.936 48.4258H447.879ZM447.879 42.2148H454.383C458.816 42.1367 461.033 40.3691 461.033 36.9121C461.033 34.9785 460.467 33.5918 459.334 32.752C458.221 31.8926 456.453 31.4629 454.031 31.4629H447.879V42.2148ZM494.607 24.3438H503.397V53.875C503.397 56.5898 502.791 58.9922 501.58 61.082C500.389 63.1523 498.699 64.7539 496.512 65.8867C494.324 67.0195 491.854 67.5859 489.1 67.5859C484.588 67.5859 481.072 66.4434 478.553 64.1582C476.033 61.8535 474.773 58.6016 474.773 54.4023H483.621C483.621 56.4922 484.061 58.0352 484.94 59.0312C485.818 60.0273 487.205 60.5254 489.1 60.5254C490.779 60.5254 492.117 59.9492 493.113 58.7969C494.109 57.6445 494.607 56.0039 494.607 53.875V24.3438Z" fill="url(#paint0_linear)"/>
<defs>
<linearGradient id="paint0_linear" x1="546.559" y1="44.75" x2="124.181" y2="30.0586" gradientUnits="userSpaceOnUse">
<stop stop-color="#017FC7"/>
<stop offset="1" stop-color="#0070AF"/>
</linearGradient>
</defs>
</svg>
