<svg width="123" height="100" viewBox="0 0 123 100" fill="none" xmlns="http://www.w3.org/2000/svg">
<circle cx="48.0504" cy="39.6091" r="39.6091" fill="#017FC7"/>
<circle cx="68.5043" cy="43.1804" r="5.5193" fill="#F1B985"/>
<circle cx="28.2458" cy="43.1804" r="5.5193" fill="#F3DB9F"/>
<circle cx="28.2458" cy="43.1804" r="5.5193" fill="#EBB380"/>
<rect x="27.9212" y="11.6879" width="40.2584" height="56.4916" rx="20.1292" fill="#EAC4A1"/>
<rect x="45.4531" y="42.8558" width="5.19463" height="11.0386" rx="2.59732" fill="#B48152"/>
<path d="M26.6225 30.5185C26.6225 20.1187 35.0532 11.6879 45.453 11.6879H50.6477C61.0475 11.6879 69.4782 20.1187 69.4782 30.5185H26.6225Z" fill="#032C43"/>
<path d="M27.9212 48.6996H68.1796C68.1796 59.4581 59.4582 68.1795 48.6997 68.1795H47.4011C36.6426 68.1795 27.9212 59.4581 27.9212 48.6996Z" fill="white"/>
<circle cx="39.9338" cy="37.3364" r="5.0193" fill="#EAC4A1" stroke="black"/>
<circle cx="56.167" cy="37.3364" r="5.0193" fill="#EAC4A1" stroke="black"/>
<line x1="45.4531" y1="37.1611" x2="50.6477" y2="37.1611" stroke="black"/>
<path d="M47.6187 22.0771C49.2039 25.4232 49.5129 28.009 51.6778 30.6454C53.8427 33.2817 42.2064 30.6454 42.2064 30.6454C45.8303 28.3647 45.7226 26.9663 47.6187 22.0771Z" fill="#EAC4A1"/>
<circle cx="48.0504" cy="39.6091" r="36.1091" stroke="black" stroke-width="7"/>
<rect x="80.0827" y="58.1561" width="52.4456" height="8.44128" transform="rotate(35.083 80.0827 58.1561)" fill="black"/>
<path d="M3.56836 84.213L6.125 91.4318L8.66797 84.213H11.3613V94.1661H9.30371V91.4454L9.50879 86.7491L6.82227 94.1661H5.41406L2.73438 86.756L2.93945 91.4454V94.1661H0.888672V84.213H3.56836ZM12.7148 90.3995C12.7148 89.6658 12.8561 89.0118 13.1387 88.4376C13.4212 87.8634 13.8268 87.4191 14.3555 87.1046C14.8887 86.7902 15.5062 86.6329 16.208 86.6329C17.2061 86.6329 18.0195 86.9383 18.6484 87.549C19.2819 88.1596 19.6351 88.9891 19.708 90.0372L19.7217 90.5431C19.7217 91.6779 19.4049 92.5893 18.7715 93.2775C18.138 93.9611 17.2881 94.3029 16.2217 94.3029C15.1553 94.3029 14.3031 93.9611 13.665 93.2775C13.0316 92.5939 12.7148 91.6642 12.7148 90.4884V90.3995ZM14.6904 90.5431C14.6904 91.2449 14.8226 91.7827 15.0869 92.1564C15.3512 92.5255 15.7295 92.7101 16.2217 92.7101C16.7002 92.7101 17.0739 92.5278 17.3428 92.1632C17.6117 91.7941 17.7461 91.2062 17.7461 90.3995C17.7461 89.7114 17.6117 89.1782 17.3428 88.7999C17.0739 88.4217 16.6956 88.2325 16.208 88.2325C15.7249 88.2325 15.3512 88.4217 15.0869 88.7999C14.8226 89.1736 14.6904 89.7547 14.6904 90.5431ZM22.7568 86.7697L22.8184 87.6241C23.347 86.9633 24.0557 86.6329 24.9443 86.6329C25.7282 86.6329 26.3115 86.8631 26.6943 87.3234C27.0771 87.7837 27.2731 88.4718 27.2822 89.3878V94.1661H25.3066V89.4357C25.3066 89.0164 25.2155 88.7133 25.0332 88.5265C24.8509 88.3351 24.5479 88.2394 24.124 88.2394C23.568 88.2394 23.151 88.4764 22.873 88.9503V94.1661H20.8975V86.7697H22.7568ZM30.8711 94.1661H28.8887V86.7697H30.8711V94.1661ZM28.7725 84.8556C28.7725 84.5594 28.8704 84.3156 29.0664 84.1241C29.2669 83.9327 29.5381 83.837 29.8799 83.837C30.2171 83.837 30.486 83.9327 30.6865 84.1241C30.887 84.3156 30.9873 84.5594 30.9873 84.8556C30.9873 85.1564 30.8848 85.4025 30.6797 85.5939C30.4792 85.7853 30.2126 85.881 29.8799 85.881C29.5472 85.881 29.2783 85.7853 29.0732 85.5939C28.8727 85.4025 28.7725 85.1564 28.7725 84.8556ZM34.8701 84.9513V86.7697H36.1348V88.2189H34.8701V91.9103C34.8701 92.1837 34.9225 92.3797 35.0273 92.4982C35.1322 92.6167 35.3327 92.6759 35.6289 92.6759C35.8477 92.6759 36.0413 92.66 36.21 92.6281V94.1251C35.8226 94.2436 35.4238 94.3029 35.0137 94.3029C33.6283 94.3029 32.9219 93.6033 32.8945 92.2042V88.2189H31.8145V86.7697H32.8945V84.9513H34.8701ZM36.7227 90.3995C36.7227 89.6658 36.8639 89.0118 37.1465 88.4376C37.429 87.8634 37.8346 87.4191 38.3633 87.1046C38.8965 86.7902 39.514 86.6329 40.2158 86.6329C41.2139 86.6329 42.0273 86.9383 42.6562 87.549C43.2897 88.1596 43.6429 88.9891 43.7158 90.0372L43.7295 90.5431C43.7295 91.6779 43.4128 92.5893 42.7793 93.2775C42.1458 93.9611 41.2959 94.3029 40.2295 94.3029C39.1631 94.3029 38.3109 93.9611 37.6729 93.2775C37.0394 92.5939 36.7227 91.6642 36.7227 90.4884V90.3995ZM38.6982 90.5431C38.6982 91.2449 38.8304 91.7827 39.0947 92.1564C39.359 92.5255 39.7373 92.7101 40.2295 92.7101C40.708 92.7101 41.0817 92.5278 41.3506 92.1632C41.6195 91.7941 41.7539 91.2062 41.7539 90.3995C41.7539 89.7114 41.6195 89.1782 41.3506 88.7999C41.0817 88.4217 40.7035 88.2325 40.2158 88.2325C39.7327 88.2325 39.359 88.4217 39.0947 88.7999C38.8304 89.1736 38.6982 89.7547 38.6982 90.5431ZM49.1025 88.6222C48.8337 88.5857 48.5967 88.5675 48.3916 88.5675C47.6442 88.5675 47.1543 88.8204 46.9219 89.3263V94.1661H44.9463V86.7697H46.8125L46.8672 87.6515C47.2637 86.9725 47.8128 86.6329 48.5146 86.6329C48.7334 86.6329 48.9385 86.6626 49.1299 86.7218L49.1025 88.6222ZM54.1406 94.1661C54.0495 93.9884 53.9834 93.7674 53.9424 93.5031C53.4639 94.0363 52.8418 94.3029 52.0762 94.3029C51.3516 94.3029 50.75 94.0932 50.2715 93.674C49.7975 93.2547 49.5605 92.726 49.5605 92.088C49.5605 91.3042 49.8499 90.7026 50.4287 90.2833C51.012 89.8641 51.8529 89.6521 52.9512 89.6476H53.8604V89.2238C53.8604 88.882 53.7715 88.6085 53.5938 88.4034C53.4206 88.1984 53.1449 88.0958 52.7666 88.0958C52.4339 88.0958 52.1719 88.1756 51.9805 88.3351C51.7936 88.4946 51.7002 88.7133 51.7002 88.9913H49.7246C49.7246 88.5629 49.8568 88.1665 50.1211 87.8019C50.3854 87.4373 50.7591 87.1525 51.2422 86.9474C51.7253 86.7378 52.2676 86.6329 52.8691 86.6329C53.7806 86.6329 54.5029 86.8631 55.0361 87.3234C55.5739 87.7791 55.8428 88.4217 55.8428 89.2511V92.4572C55.8473 93.159 55.9453 93.6899 56.1367 94.0499V94.1661H54.1406ZM52.5068 92.7921C52.7985 92.7921 53.0674 92.7283 53.3135 92.6007C53.5596 92.4685 53.7419 92.2931 53.8604 92.0743V90.8029H53.1221C52.1331 90.8029 51.6068 91.1447 51.543 91.8282L51.5361 91.9445C51.5361 92.1906 51.6227 92.3934 51.7959 92.5529C51.9691 92.7124 52.2061 92.7921 52.5068 92.7921ZM64.6885 90.7003H60.8398V89.1075H64.6885V90.7003ZM69.8906 94.1661V84.213H73.377C74.5846 84.213 75.5007 84.4454 76.125 84.9103C76.7493 85.3706 77.0615 86.0473 77.0615 86.9406C77.0615 87.4282 76.9362 87.8588 76.6855 88.2325C76.4349 88.6017 76.0863 88.8728 75.6396 89.046C76.1501 89.1736 76.5511 89.4311 76.8428 89.8185C77.139 90.2059 77.2871 90.6798 77.2871 91.2404C77.2871 92.1974 76.9818 92.922 76.3711 93.4142C75.7604 93.9064 74.89 94.157 73.7598 94.1661H69.8906ZM71.9414 89.8322V92.5187H73.6982C74.1813 92.5187 74.5573 92.4047 74.8262 92.1769C75.0996 91.9445 75.2363 91.6254 75.2363 91.2198C75.2363 90.3084 74.7646 89.8458 73.8213 89.8322H71.9414ZM71.9414 88.3829H73.459C74.4935 88.3647 75.0107 87.9523 75.0107 87.1456C75.0107 86.6945 74.8786 86.3709 74.6143 86.1749C74.3545 85.9744 73.9421 85.8741 73.377 85.8741H71.9414V88.3829ZM82.8447 84.213H84.8955V91.1036C84.8955 91.7371 84.7542 92.2976 84.4717 92.7853C84.1937 93.2684 83.7995 93.642 83.2891 93.9064C82.7786 94.1707 82.2021 94.3029 81.5596 94.3029C80.5068 94.3029 79.6865 94.0363 79.0986 93.5031C78.5107 92.9653 78.2168 92.2065 78.2168 91.2267H80.2812C80.2812 91.7143 80.3838 92.0743 80.5889 92.3068C80.7939 92.5392 81.1175 92.6554 81.5596 92.6554C81.9515 92.6554 82.2637 92.521 82.4961 92.2521C82.7285 91.9832 82.8447 91.6004 82.8447 91.1036V84.213Z" fill="black"/>
<path d="M3.56836 84.213L6.125 91.4318L8.66797 84.213H11.3613V94.1661H9.30371V91.4454L9.50879 86.7491L6.82227 94.1661H5.41406L2.73438 86.756L2.93945 91.4454V94.1661H0.888672V84.213H3.56836ZM12.7148 90.3995C12.7148 89.6658 12.8561 89.0118 13.1387 88.4376C13.4212 87.8634 13.8268 87.4191 14.3555 87.1046C14.8887 86.7902 15.5062 86.6329 16.208 86.6329C17.2061 86.6329 18.0195 86.9383 18.6484 87.549C19.2819 88.1596 19.6351 88.9891 19.708 90.0372L19.7217 90.5431C19.7217 91.6779 19.4049 92.5893 18.7715 93.2775C18.138 93.9611 17.2881 94.3029 16.2217 94.3029C15.1553 94.3029 14.3031 93.9611 13.665 93.2775C13.0316 92.5939 12.7148 91.6642 12.7148 90.4884V90.3995ZM14.6904 90.5431C14.6904 91.2449 14.8226 91.7827 15.0869 92.1564C15.3512 92.5255 15.7295 92.7101 16.2217 92.7101C16.7002 92.7101 17.0739 92.5278 17.3428 92.1632C17.6117 91.7941 17.7461 91.2062 17.7461 90.3995C17.7461 89.7114 17.6117 89.1782 17.3428 88.7999C17.0739 88.4217 16.6956 88.2325 16.208 88.2325C15.7249 88.2325 15.3512 88.4217 15.0869 88.7999C14.8226 89.1736 14.6904 89.7547 14.6904 90.5431ZM22.7568 86.7697L22.8184 87.6241C23.347 86.9633 24.0557 86.6329 24.9443 86.6329C25.7282 86.6329 26.3115 86.8631 26.6943 87.3234C27.0771 87.7837 27.2731 88.4718 27.2822 89.3878V94.1661H25.3066V89.4357C25.3066 89.0164 25.2155 88.7133 25.0332 88.5265C24.8509 88.3351 24.5479 88.2394 24.124 88.2394C23.568 88.2394 23.151 88.4764 22.873 88.9503V94.1661H20.8975V86.7697H22.7568ZM30.8711 94.1661H28.8887V86.7697H30.8711V94.1661ZM28.7725 84.8556C28.7725 84.5594 28.8704 84.3156 29.0664 84.1241C29.2669 83.9327 29.5381 83.837 29.8799 83.837C30.2171 83.837 30.486 83.9327 30.6865 84.1241C30.887 84.3156 30.9873 84.5594 30.9873 84.8556C30.9873 85.1564 30.8848 85.4025 30.6797 85.5939C30.4792 85.7853 30.2126 85.881 29.8799 85.881C29.5472 85.881 29.2783 85.7853 29.0732 85.5939C28.8727 85.4025 28.7725 85.1564 28.7725 84.8556ZM34.8701 84.9513V86.7697H36.1348V88.2189H34.8701V91.9103C34.8701 92.1837 34.9225 92.3797 35.0273 92.4982C35.1322 92.6167 35.3327 92.6759 35.6289 92.6759C35.8477 92.6759 36.0413 92.66 36.21 92.6281V94.1251C35.8226 94.2436 35.4238 94.3029 35.0137 94.3029C33.6283 94.3029 32.9219 93.6033 32.8945 92.2042V88.2189H31.8145V86.7697H32.8945V84.9513H34.8701ZM36.7227 90.3995C36.7227 89.6658 36.8639 89.0118 37.1465 88.4376C37.429 87.8634 37.8346 87.4191 38.3633 87.1046C38.8965 86.7902 39.514 86.6329 40.2158 86.6329C41.2139 86.6329 42.0273 86.9383 42.6562 87.549C43.2897 88.1596 43.6429 88.9891 43.7158 90.0372L43.7295 90.5431C43.7295 91.6779 43.4128 92.5893 42.7793 93.2775C42.1458 93.9611 41.2959 94.3029 40.2295 94.3029C39.1631 94.3029 38.3109 93.9611 37.6729 93.2775C37.0394 92.5939 36.7227 91.6642 36.7227 90.4884V90.3995ZM38.6982 90.5431C38.6982 91.2449 38.8304 91.7827 39.0947 92.1564C39.359 92.5255 39.7373 92.7101 40.2295 92.7101C40.708 92.7101 41.0817 92.5278 41.3506 92.1632C41.6195 91.7941 41.7539 91.2062 41.7539 90.3995C41.7539 89.7114 41.6195 89.1782 41.3506 88.7999C41.0817 88.4217 40.7035 88.2325 40.2158 88.2325C39.7327 88.2325 39.359 88.4217 39.0947 88.7999C38.8304 89.1736 38.6982 89.7547 38.6982 90.5431ZM49.1025 88.6222C48.8337 88.5857 48.5967 88.5675 48.3916 88.5675C47.6442 88.5675 47.1543 88.8204 46.9219 89.3263V94.1661H44.9463V86.7697H46.8125L46.8672 87.6515C47.2637 86.9725 47.8128 86.6329 48.5146 86.6329C48.7334 86.6329 48.9385 86.6626 49.1299 86.7218L49.1025 88.6222ZM54.1406 94.1661C54.0495 93.9884 53.9834 93.7674 53.9424 93.5031C53.4639 94.0363 52.8418 94.3029 52.0762 94.3029C51.3516 94.3029 50.75 94.0932 50.2715 93.674C49.7975 93.2547 49.5605 92.726 49.5605 92.088C49.5605 91.3042 49.8499 90.7026 50.4287 90.2833C51.012 89.8641 51.8529 89.6521 52.9512 89.6476H53.8604V89.2238C53.8604 88.882 53.7715 88.6085 53.5938 88.4034C53.4206 88.1984 53.1449 88.0958 52.7666 88.0958C52.4339 88.0958 52.1719 88.1756 51.9805 88.3351C51.7936 88.4946 51.7002 88.7133 51.7002 88.9913H49.7246C49.7246 88.5629 49.8568 88.1665 50.1211 87.8019C50.3854 87.4373 50.7591 87.1525 51.2422 86.9474C51.7253 86.7378 52.2676 86.6329 52.8691 86.6329C53.7806 86.6329 54.5029 86.8631 55.0361 87.3234C55.5739 87.7791 55.8428 88.4217 55.8428 89.2511V92.4572C55.8473 93.159 55.9453 93.6899 56.1367 94.0499V94.1661H54.1406ZM52.5068 92.7921C52.7985 92.7921 53.0674 92.7283 53.3135 92.6007C53.5596 92.4685 53.7419 92.2931 53.8604 92.0743V90.8029H53.1221C52.1331 90.8029 51.6068 91.1447 51.543 91.8282L51.5361 91.9445C51.5361 92.1906 51.6227 92.3934 51.7959 92.5529C51.9691 92.7124 52.2061 92.7921 52.5068 92.7921ZM64.6885 90.7003H60.8398V89.1075H64.6885V90.7003ZM69.8906 94.1661V84.213H73.377C74.5846 84.213 75.5007 84.4454 76.125 84.9103C76.7493 85.3706 77.0615 86.0473 77.0615 86.9406C77.0615 87.4282 76.9362 87.8588 76.6855 88.2325C76.4349 88.6017 76.0863 88.8728 75.6396 89.046C76.1501 89.1736 76.5511 89.4311 76.8428 89.8185C77.139 90.2059 77.2871 90.6798 77.2871 91.2404C77.2871 92.1974 76.9818 92.922 76.3711 93.4142C75.7604 93.9064 74.89 94.157 73.7598 94.1661H69.8906ZM71.9414 89.8322V92.5187H73.6982C74.1813 92.5187 74.5573 92.4047 74.8262 92.1769C75.0996 91.9445 75.2363 91.6254 75.2363 91.2198C75.2363 90.3084 74.7646 89.8458 73.8213 89.8322H71.9414ZM71.9414 88.3829H73.459C74.4935 88.3647 75.0107 87.9523 75.0107 87.1456C75.0107 86.6945 74.8786 86.3709 74.6143 86.1749C74.3545 85.9744 73.9421 85.8741 73.377 85.8741H71.9414V88.3829ZM82.8447 84.213H84.8955V91.1036C84.8955 91.7371 84.7542 92.2976 84.4717 92.7853C84.1937 93.2684 83.7995 93.642 83.2891 93.9064C82.7786 94.1707 82.2021 94.3029 81.5596 94.3029C80.5068 94.3029 79.6865 94.0363 79.0986 93.5031C78.5107 92.9653 78.2168 92.2065 78.2168 91.2267H80.2812C80.2812 91.7143 80.3838 92.0743 80.5889 92.3068C80.7939 92.5392 81.1175 92.6554 81.5596 92.6554C81.9515 92.6554 82.2637 92.521 82.4961 92.2521C82.7285 91.9832 82.8447 91.6004 82.8447 91.1036V84.213Z" fill="url(#paint0_linear)"/>
<defs>
<linearGradient id="paint0_linear" x1="96.1007" y1="92.5294" x2="-3.69224" y2="90.0951" gradientUnits="userSpaceOnUse">
<stop stop-color="#017FC7"/>
<stop offset="1" stop-color="#0070AF"/>
</linearGradient>
</defs>
</svg>
